<svg version="1" xmlns="http://www.w3.org/2000/svg" width="682.667" height="682.667" viewBox="0 0 512.000000 512.000000"><path d="M0 256v256h512V0H0v256zM152.8 99.4c6.7 3.5 6.6 2.6 7.4 37.4.4 17.4 1.4 47.4 2.3 66.7.9 19.2 1.8 58.6 2.1 87.5.5 49.5.4 52.7-1.3 56-3.7 7.2-13.6 9-19.4 3.4-2.6-2.5-2.9-3.4-2.9-9.6V334h-9.7c-13.6 0-35.7-2.5-42.3-4.8-16.4-5.7-23.8-12-30.9-26.6-5.8-11.7-7.6-19.5-6.6-27.9 2.5-22.6 19.7-41.5 52-57.2 11.6-5.7 19.5-8.1 29.4-9.1l6-.7-.5-4.6c-.7-7.2-2.4-66-2.4-82.4 0-8.6.4-15.7 1.1-16.8 1.4-2.8 6.9-5.9 10.2-5.9 1.5 0 4 .6 5.5 1.4zm265.7 83c2.2.9 4.1 2.8 5.3 5.3 5 9.7 19.5 56 26.2 83.5 8.4 34.3 10.1 74.7 4.4 102.3-7.3 35.4-27 58.9-54.1 64.9-20.1 4.5-42.9-1.2-57.3-14.1-5.8-5.2-6.9-8.8-4.3-14 2.4-4.9 6.2-7.5 11.1-7.7 3.2 0 4.8.7 8.5 3.7 2.6 2.1 7.2 5 10.4 6.5 5.2 2.4 7 2.7 16.4 2.7 10.1 0 10.8-.1 18.1-3.7 8.3-4.2 12.7-8.4 18-17.5 8.2-13.8 11.4-27 12.5-50.2l.6-13.4-2.8.7c-5.3 1.3-28.9.7-37.1-.9-34.9-7.2-46.9-21.4-44.2-52.2 1.7-19.8 16.2-57.8 26.2-69 5.2-5.7 14.4-11 20.9-11.9 4.3-.6 4.4-.7 4.4-4.3 0-4.8 1.6-7.7 5.6-10.1 3.8-2.4 6.6-2.5 11.2-.6zm-120 14.1c16.3 3.5 28.9 12.4 35.1 25 8.8 17.9 3.8 37.7-13.6 53.9-16 14.7-36.1 25.4-58.7 31-13.8 3.4-16.5 3.8-26.8 3.7-10.7 0-16.8-1.3-24.8-5.3-4.8-2.4-6.2-3.6-7.6-7.1-1-2.3-3.7-8.5-6-13.8-2.2-5.3-4.8-12.9-5.7-16.9-5.1-22.5 9.7-45.1 39.1-59.7 9.6-4.8 22.1-9.1 31.8-10.8 9.9-1.8 28.7-1.8 37.2 0z"/><path d="M129.4 233c-14.3 2.9-42 20-49.1 30.3-5.9 8.7-6.5 15.8-2.2 27.2 2 5.4 7.3 11.2 12.7 14 5.7 2.8 15.8 4.4 33.4 5.1l16.8.7v-19.5c0-10.7-.3-28.3-.7-39.1l-.6-19.7-3.1.1c-1.7.1-4.9.5-7.2.9zM403.8 220.5c-9.1 1.8-12.2 5.8-20.7 27.2-11.1 28-12.8 45.7-4.8 51.7 3.5 2.6 13.5 5.9 23.7 7.7 7.3 1.3 24.3 1.6 27.8.5 2.2-.7 2.3-1.1 1.7-5.9-1.9-14.4-10-46.4-17.8-69.8l-4.2-12.6-5.7 1.2zM261.3 220.9c-16.3 4.4-33.8 13.4-40.2 20.6-8.6 9.8-9.3 18.8-2.7 34.2 4.5 10.4 4.3 10.3 17.5 10.3 21.6-.1 51.5-12.5 67.3-28.1 8.4-8.2 10.8-12.5 10.8-19.2 0-6.2-5-12.6-12.7-16.4-5.4-2.6-6.8-2.8-19.3-3-10.7-.2-15 .1-20.7 1.6z"/></svg>